<svg xmlns="http://www.w3.org/2000/svg" xmlns:svg="http://www.w3.org/2000/svg" id="Calque_1" width="599.223" height="141.5" x="0" y="0" enable-background="new 0 0 946 371" version="1.1" viewBox="0 0 599.223 141.5" xml:space="preserve"><metadata id="metadata41"/><g id="texte_noir" transform="translate(-182.1,-91.1)"><path id="path2" d="m 219.6,137.7 c -2.7,0 -4.4,1 -4.4,2.6 0,7.3 40.6,4.4 40.6,30.7 0,16.2 -13.9,26.6 -35.5,26.6 -14.4,0 -27.3,-3.7 -38.2,-11.2 l 9.7,-20 c 10.4,6.4 20.2,9.7 28.9,9.7 3,0 4.9,-0.9 4.9,-2.3 0,-6.9 -39.8,-3.9 -39.8,-30.3 0,-16.4 13.6,-27 34.5,-27 12.4,0 24.6,3.3 36.3,9.9 L 246,146.2 c -11.6,-5.7 -20.4,-8.5 -26.4,-8.5 z"/><path id="path4" d="m 301.9,177.3 c 6.4,0 11.3,-5 11.3,-13 v -46.1 h 26 v 46.1 c 0,21.2 -14.7,35 -37.4,35 -22.9,0 -38,-13.8 -38,-35 v -46.1 h 26 v 46.1 c 0,7.8 5.6,13 12.1,13 z"/><path id="path6" d="m 407.7,116.5 v 29 c -14.4,-2.1 -23.9,3 -23.9,13.3 v 37.3 h -32.2 v -78.2 h 32.2 v 11.4 c 5.4,-8.1 13.7,-12.8 23.9,-12.8 z"/><path id="path8" d="m 494,157.5 c 0,24.2 -12.1,39.8 -30.8,39.8 -7.4,0 -13.7,-3.3 -18.2,-9.2 v 35.8 h -28.3 v -106 H 445 v 7.9 c 4.4,-5.9 10.4,-9 17.5,-9 19.1,0 31.5,16 31.5,40.7 z m -28.5,-0.8 c 0,-9.2 -4,-15.2 -10.3,-15.2 -6.2,0 -10.2,6 -10.2,15.2 0,9.2 4,15.2 10.2,15.2 6.2,-0.1 10.3,-6.1 10.3,-15.2 z"/><path id="path10" d="m 559.8,116.5 v 29 c -14.4,-2.1 -23.9,3 -23.9,13.3 v 37.3 H 503.7 V 117.9 H 536 v 11.4 c 5.4,-8.1 13.7,-12.8 23.8,-12.8 z"/><path id="path12" fill="none" stroke="#000" stroke-miterlimit="10" stroke-width="6" d="m 574.5,217.4 c 0,-4.1 1.1,-7.1 3.4,-9.1 2.3,-2 5.9,-3 11,-3 5.1,0 8.8,1 11.1,3.1 2.3,2 3.5,5.1 3.5,9.1 0,8.1 -4.9,12.1 -14.6,12.1 -4.9,0 -8.5,-1 -10.9,-3 -2.4,-2 -3.5,-5.1 -3.5,-9.2 z m 0.7,-21.3 v -102 h 27.7 v 102.1 h -27.7 z"/><path id="path14" d="m 653.1,137.7 c -2.7,0 -4.4,1 -4.4,2.6 0,7.3 40.6,4.4 40.6,30.7 0,16.2 -13.9,26.6 -35.5,26.6 -14.4,0 -27.3,-3.7 -38.2,-11.2 l 9.7,-20 c 10.4,6.4 20.2,9.7 28.9,9.7 3,0 4.9,-0.9 4.9,-2.3 0,-6.9 -39.8,-3.9 -39.8,-30.3 0,-16.4 13.6,-27 34.5,-27 12.4,0 24.6,3.3 36.3,9.9 l -10.6,19.9 c -11.5,-5.8 -20.4,-8.6 -26.4,-8.6 z"/><path id="path16" d="m 781.2,164.2 h -50.9 c 2.1,6.1 6.7,9.3 13,9.3 5.4,0 11,-2.4 15.9,-7 l 16.7,16.4 c -8.3,9.2 -20.3,14.3 -35.5,14.3 -26.7,0 -42.6,-15.7 -42.6,-39.9 0,-24.7 16.6,-40.6 41.8,-40.6 27.3,0.1 43.3,18.7 41.6,47.5 z m -41.3,-26 c -5.6,0 -9,4.6 -10.3,11.2 H 749 c 0.5,-6.5 -3.5,-11.2 -9.1,-11.2 z"/></g><g id="texte_blanc" display="none" transform="translate(-182.1,-91.1)"><path id="path19" fill="#fff" d="m 219.6,137.7 c -2.7,0 -4.4,1 -4.4,2.6 0,7.3 40.6,4.4 40.6,30.7 0,16.2 -13.9,26.6 -35.5,26.6 -14.4,0 -27.3,-3.7 -38.2,-11.2 l 9.7,-20 c 10.4,6.4 20.2,9.7 28.9,9.7 3,0 4.9,-0.9 4.9,-2.3 0,-6.9 -39.8,-3.9 -39.8,-30.3 0,-16.4 13.6,-27 34.5,-27 12.4,0 24.6,3.3 36.3,9.9 L 246,146.2 c -11.6,-5.7 -20.4,-8.5 -26.4,-8.5 z" display="inline"/><path id="path21" fill="#fff" d="m 301.9,177.3 c 6.4,0 11.3,-5 11.3,-13 v -46.1 h 26 v 46.1 c 0,21.2 -14.7,35 -37.4,35 -22.9,0 -38,-13.8 -38,-35 v -46.1 h 26 v 46.1 c 0,7.8 5.6,13 12.1,13 z" display="inline"/><path id="path23" fill="#fff" d="m 407.7,116.5 v 29 c -14.4,-2.1 -23.9,3 -23.9,13.3 v 37.3 h -32.2 v -78.2 h 32.2 v 11.4 c 5.4,-8.1 13.7,-12.8 23.9,-12.8 z" display="inline"/><path id="path25" fill="#fff" d="m 494,157.5 c 0,24.2 -12.1,39.8 -30.8,39.8 -7.4,0 -13.7,-3.3 -18.2,-9.2 v 35.8 h -28.3 v -106 H 445 v 7.9 c 4.4,-5.9 10.4,-9 17.5,-9 19.1,0 31.5,16 31.5,40.7 z m -28.5,-0.8 c 0,-9.2 -4,-15.2 -10.3,-15.2 -6.2,0 -10.2,6 -10.2,15.2 0,9.2 4,15.2 10.2,15.2 6.2,-0.1 10.3,-6.1 10.3,-15.2 z" display="inline"/><path id="path27" fill="#fff" d="m 559.8,116.5 v 29 c -14.4,-2.1 -23.9,3 -23.9,13.3 v 37.3 H 503.7 V 117.9 H 536 v 11.4 c 5.4,-8.1 13.7,-12.8 23.8,-12.8 z" display="inline"/><path id="path29" fill="none" stroke="#fff" stroke-miterlimit="10" stroke-width="6" d="m 574.5,217.4 c 0,-4.1 1.1,-7.1 3.4,-9.1 2.3,-2 5.9,-3 11,-3 5.1,0 8.8,1 11.1,3.1 2.3,2 3.5,5.1 3.5,9.1 0,8.1 -4.9,12.1 -14.6,12.1 -4.9,0 -8.5,-1 -10.9,-3 -2.4,-2 -3.5,-5.1 -3.5,-9.2 z m 0.7,-21.3 v -102 h 27.7 v 102.1 h -27.7 z" display="inline"/><path id="path31" fill="#fff" d="m 653.1,137.7 c -2.7,0 -4.4,1 -4.4,2.6 0,7.3 40.6,4.4 40.6,30.7 0,16.2 -13.9,26.6 -35.5,26.6 -14.4,0 -27.3,-3.7 -38.2,-11.2 l 9.7,-20 c 10.4,6.4 20.2,9.7 28.9,9.7 3,0 4.9,-0.9 4.9,-2.3 0,-6.9 -39.8,-3.9 -39.8,-30.3 0,-16.4 13.6,-27 34.5,-27 12.4,0 24.6,3.3 36.3,9.9 l -10.6,19.9 c -11.5,-5.8 -20.4,-8.6 -26.4,-8.6 z" display="inline"/><path id="path33" fill="#fff" d="m 781.2,164.2 h -50.9 c 2.1,6.1 6.7,9.3 13,9.3 5.4,0 11,-2.4 15.9,-7 l 16.7,16.4 c -8.3,9.2 -20.3,14.3 -35.5,14.3 -26.7,0 -42.6,-15.7 -42.6,-39.9 0,-24.7 16.6,-40.6 41.8,-40.6 27.3,0.1 43.3,18.7 41.6,47.5 z m -41.3,-26 c -5.6,0 -9,4.6 -10.3,11.2 H 749 c 0.5,-6.5 -3.5,-11.2 -9.1,-11.2 z" display="inline"/></g></svg>